<svg width="291" height="171" viewBox="0 0 291 171" fill="none" xmlns="http://www.w3.org/2000/svg">
<path d="M26.6792 127.985C28.8215 97.77 39.2042 86.0336 39.2042 86.0336C39.2042 86.0336 36.063 78.4108 37.6533 75.7692C39.2436 73.1275 43.9355 77.5303 43.9355 77.5303C43.9355 77.5303 43.0156 67.8441 44.619 65.5047C46.2224 63.1522 50.6251 67.555 50.6251 67.555C50.6251 67.555 49.1663 58.7494 53.464 56.9883C57.7485 55.2272 60.3376 63.4413 60.3376 63.4413C60.3376 63.4413 62.1119 54.6357 65.0296 54.3466C67.9473 54.0575 70.878 63.1522 70.878 63.1522C70.878 63.1522 71.4957 59.0385 75.5962 59.0385C79.7099 59.0385 79.1316 63.7305 85.4795 66.6613C91.8274 69.5921 110.201 67.831 110.201 67.831L120.754 135.305C83.4686 135.7 46.7218 135.831 26.6792 127.985Z" fill="#EA8C3F"/>
<path d="M36.6544 107.693C60.9946 114.501 94.1273 71.0252 94.3639 68.2652C90.8285 68.0812 87.5165 67.6212 85.4663 66.6749C79.1184 63.7441 79.6835 59.0522 75.583 59.0522C71.4693 59.0522 70.8648 63.1659 70.8648 63.1659C70.8648 63.1659 67.9209 54.0711 65.0164 54.3603C62.0987 54.6494 60.3243 63.455 60.3243 63.455C60.3243 63.455 57.7352 55.2408 53.4507 57.0019C49.1662 58.7631 50.6119 67.5687 50.6119 67.5687C50.6119 67.5687 46.2223 63.1658 44.6057 65.5184C43.0023 67.8709 43.9223 77.5439 43.9223 77.5439C43.9223 77.5439 39.2303 73.1412 37.6401 75.7828C36.0498 78.4245 39.191 86.0473 39.191 86.0473C39.191 86.0473 34.1442 91.7643 30.3591 105.446C32.3831 106.326 34.4858 107.089 36.6544 107.693Z" fill="#F9A55A"/>
<path d="M60.4296 80.7765C69.682 76.7549 77.7253 71.5767 84.0732 65.9253C79.1973 63.0076 79.3549 59.0385 75.583 59.0385C71.4693 59.0385 70.8648 63.1522 70.8648 63.1522C70.8648 63.1522 67.9209 54.0575 65.0164 54.3466C62.0987 54.6357 60.3243 63.4413 60.3243 63.4413C60.3243 63.4413 57.7353 55.2272 53.4508 56.9883C49.1662 58.7494 50.6119 67.555 50.6119 67.555C50.6119 67.555 46.2223 63.1522 44.6058 65.5047C43.0024 67.8573 43.9223 77.5303 43.9223 77.5303C43.9223 77.5303 39.2303 73.1275 37.6401 75.7692C36.0498 78.4108 39.191 86.0336 39.191 86.0336C39.191 86.0336 38.8098 86.4673 38.1921 87.361C45.3286 86.2307 52.8857 84.0622 60.4296 80.7765Z" fill="#FFD0A9"/>
<path d="M128.377 130.035C112.238 130.627 104.313 125.054 104.313 125.054C106.363 123.885 94.0487 122.702 92.8658 121.243C91.6961 119.771 100.489 115.67 100.489 115.67C100.489 115.67 90.8024 116.551 88.7522 114.79C86.7019 113.029 95.4944 105.406 95.4944 105.406C95.4944 105.406 82.5883 103.356 81.4055 102.173C80.2358 101.003 99.3058 83.392 99.3058 83.392C99.3058 83.392 90.211 83.1028 90.211 81.0394C90.211 78.9892 106.048 71.0641 106.048 71.0641C106.048 71.0641 101.934 70.775 102.237 68.7116C102.526 66.6614 111.042 65.7808 111.042 65.7808C111.042 65.7808 111.042 64.0197 111.923 61.6671C112.803 59.3146 119.848 56.6861 119.848 56.6861L151.824 46.1194C151.824 46.1194 158.868 40.5469 160.919 40.836C162.969 41.1251 169.724 41.1251 169.724 41.1251C169.724 41.1251 177.649 39.364 179.989 39.6532C182.341 39.9423 183.222 42.0057 183.222 42.0057C183.222 42.0057 194.078 39.6532 196.128 40.2446C198.178 40.836 199.939 44.3582 199.939 44.3582C199.939 44.3582 225.751 53.1638 228.104 56.3838C230.456 59.6169 230.457 64.8871 230.457 64.8871C230.457 64.8871 236.91 69.8682 238.96 73.3904C241.01 76.9126 241.01 78.3715 241.01 78.3715C241.01 78.3715 250.985 88.6359 252.155 91.5799C253.325 94.5107 251.275 95.9827 251.275 95.9827C251.275 95.9827 255.388 101.844 255.966 103.908C256.558 105.958 250.985 108.021 250.985 108.021C250.985 108.021 251.274 111.254 250.394 112.713C249.513 114.185 243.06 111.241 243.06 111.241C243.06 111.241 248.041 117.405 246.582 118.575C245.11 119.745 238.658 118.575 238.658 118.575C238.658 118.575 243.06 121.217 242.771 122.386C242.482 123.556 220.179 127.367 220.179 127.367C195.339 136.488 162.404 134.031 128.377 130.035Z" fill="#FFE3C5"/>
<path d="M183.261 129.931C146.107 127.881 100.502 115.671 100.502 115.671C100.502 115.671 91.696 119.785 92.8789 121.244C94.0486 122.716 106.376 123.885 104.326 125.055C104.326 125.055 112.251 130.627 128.39 130.036C162.404 134.031 195.352 136.476 220.218 127.394C220.218 127.394 242.521 123.583 242.81 122.413C243.1 121.244 238.697 118.602 238.697 118.602C238.697 118.602 245.15 119.772 246.622 118.602C247.529 117.879 245.991 115.277 244.664 113.371C223.478 116.591 212.425 131.534 183.261 129.931Z" fill="#F4BF98"/>
<path d="M172.103 101.582C177.176 96.5085 176.282 59.0913 170.092 41.0727C169.882 41.1253 169.75 41.1516 169.75 41.1516C169.75 41.1516 163.008 41.1516 160.945 40.8624C158.894 40.5733 151.85 46.1458 151.85 46.1458L119.874 56.7125C119.874 56.7125 112.829 59.3542 111.949 61.6936C111.068 64.0461 111.068 65.8072 111.068 65.8072C111.068 65.8072 102.565 66.6878 102.263 68.7381C101.973 70.7883 106.074 71.0906 106.074 71.0906C106.074 71.0906 90.2371 79.0156 90.2371 81.0659C90.2371 83.1161 99.3318 83.4184 99.3318 83.4184C99.3318 83.4184 96.5587 85.9812 93.1942 89.2143C118.073 113.397 166.833 106.852 172.103 101.582Z" fill="#F9A55A"/>
<path d="M251.024 108.035C251.024 108.035 256.597 105.984 256.005 103.921C255.414 101.871 251.314 95.9958 251.314 95.9958C251.314 95.9958 253.364 94.5239 252.194 91.5931C251.024 88.6622 241.049 78.3847 241.049 78.3847C241.049 78.3847 241.049 76.9127 238.999 73.4036C236.949 69.8813 230.495 64.9003 230.495 64.9003C230.495 64.9003 230.496 59.6169 228.143 56.397C225.791 53.1639 199.978 44.3714 199.978 44.3714C199.978 44.3714 198.217 40.8492 196.167 40.2578C194.117 39.6663 183.261 42.0189 183.261 42.0189C183.261 42.0189 182.472 40.2446 180.448 39.7715C177.938 64.0591 188.452 94.3399 191.186 98.9267C194.458 104.42 223.911 111.662 243.691 112.03C243.336 111.57 243.099 111.268 243.099 111.268C243.099 111.268 243.901 111.636 244.979 112.043C247.055 112.043 249 111.977 250.801 111.806C251.222 110.203 251.024 108.035 251.024 108.035Z" fill="#F9A55A"/>
<path d="M243.533 170.528H18.7936C18.7936 170.528 -0.565576 165.244 0.012702 136.79C0.604122 108.337 10.8686 107.154 14.3909 106.865C17.9131 106.575 71.601 125.645 78.3432 126.815C85.0854 127.985 138.484 125.343 144.648 126.526C150.812 127.696 188.952 130.337 188.952 130.337C188.952 130.337 249.579 117.983 255.257 121.532C267.006 128.865 243.533 170.528 243.533 170.528Z" fill="#E23754"/>
<path d="M243.73 154.086C231.994 151.642 224.818 138.092 227.236 123.438C216.144 125.146 204.302 127.341 196.785 128.8C199.019 137.96 196.482 146.713 189.911 150.183C181.605 154.572 170 148.882 163.981 137.5C162.364 134.438 161.326 131.271 160.813 128.195C153.44 127.577 146.921 126.947 144.674 126.526C142.453 126.105 134.042 126.171 123.909 126.395C125.039 129.286 125.367 132.125 124.763 134.858C120.952 152.062 81.8915 158.055 37.5218 148.225C23.6563 145.162 10.9211 140.904 0.065217 135.989C0.0520743 136.265 0.038906 136.514 0.038906 136.79C-0.552514 165.244 18.8198 170.528 18.8198 170.528H243.56C243.56 170.528 247.739 163.115 251.682 153.981C249.079 154.586 246.398 154.651 243.73 154.086Z" fill="#B72041"/>
<path d="M129.849 124.41C128.088 129.97 133.082 145.202 142.466 145.439C151.85 145.675 156.253 132.388 155.083 127.065C156.043 117.97 130.809 115.316 129.849 124.41Z" fill="#F9A55A"/>
<path d="M199.545 122.176C198.191 127.827 204.131 142.245 213.41 141.456C222.676 140.654 223.898 124.949 222.374 119.85C221.638 112.634 198.809 114.96 199.545 122.176Z" fill="#F9A55A"/>
<path d="M101.395 12.7641C101.619 14.7487 116.352 49.5111 120.544 58.5269L154.426 47.0797C128.233 7.03394 101.093 10.1093 101.395 12.7641Z" fill="#F9A55A"/>
<path d="M199.085 46.8686C210.743 19.5845 237.593 -0.221554 241.115 0.00187139C244.637 0.225297 229.668 65.5707 229.668 65.5707L199.085 46.8686Z" fill="#F9A55A"/>
<path d="M182.656 128.707C178.911 128.707 164.993 123.266 164.467 122.911C163.35 122.176 162.85 120.336 162.85 116.984C162.85 116.261 163.442 115.67 164.165 115.67C164.887 115.67 165.479 116.261 165.479 116.984C165.479 119.692 165.847 120.533 165.952 120.73C167.7 121.532 179.831 126.079 182.643 126.079C185.456 126.079 195.47 120.664 196.548 119.705C196.824 119.35 197.271 117.444 197.481 115.657C197.56 114.934 198.231 114.421 198.927 114.5C199.65 114.579 200.162 115.236 200.083 115.946C199.939 117.273 199.479 120.48 198.388 121.571C197.402 122.583 186.599 128.707 182.656 128.707Z" fill="#683838"/>
<path d="M182.657 128.708C182.486 128.708 182.328 128.682 182.157 128.616C181.487 128.34 181.158 127.578 181.434 126.907C181.474 126.828 184.878 118.378 185.298 112.779C185.351 112.056 185.982 111.504 186.705 111.57C187.427 111.622 187.966 112.253 187.914 112.976C187.467 118.982 184.01 127.538 183.866 127.893C183.669 128.406 183.182 128.708 182.657 128.708Z" fill="#683838"/>
<path d="M185.889 115.368C180.054 114.54 172.392 112.727 172.681 110.965C172.97 109.204 194.984 109.493 195.865 110.374C196.745 111.268 187.94 115.657 185.889 115.368Z" fill="#683838"/>
<path d="M158.093 99.6227C153.611 99.6227 148.932 98.5318 146.251 95.9296C145.726 95.4301 145.712 94.589 146.225 94.0765C146.738 93.5508 147.566 93.5376 148.078 94.0502C152.52 98.361 164.138 97.3358 166.82 94.9044C167.358 94.4182 168.186 94.4576 168.673 94.9964C169.159 95.5353 169.12 96.3633 168.581 96.8496C166.675 98.5581 162.482 99.6227 158.093 99.6227Z" fill="#683838"/>
<path d="M208.166 97.836C208.035 97.836 207.904 97.836 207.772 97.836C203.238 97.7572 199.414 96.4166 197.258 94.1298C196.759 93.6041 196.785 92.7761 197.311 92.2767C197.836 91.7772 198.678 91.8035 199.164 92.3293C200.833 94.1035 203.987 95.1549 207.812 95.2075C211.82 95.2864 215.001 94.2349 216.065 93.1704C216.578 92.6578 217.406 92.6578 217.918 93.1704C218.431 93.6829 218.431 94.5241 217.918 95.0235C216.184 96.7452 212.385 97.836 208.166 97.836Z" fill="#683838"/>
<path d="M285.642 170.529H232.244C232.244 170.529 216.919 169.753 216.105 163.787C214.764 153.811 227.841 156.046 227.841 156.046C227.841 156.046 224.319 144.125 231.35 142.377C238.394 140.616 243.376 147.66 243.376 158.214L271.251 164.956C271.251 164.956 280.28 152.707 287.088 155.572C296.196 159.384 285.642 170.529 285.642 170.529Z" fill="#F2DFB8"/>
<path d="M287.101 155.559C282.252 153.522 276.272 159.16 273.236 162.564C275.654 166.533 280.136 169.201 285.275 169.201C285.8 169.201 286.326 169.162 286.838 169.109C289.322 165.994 294.212 158.543 287.101 155.559Z" fill="#FCECD0"/>
<path d="M243.389 158.201C243.389 147.634 238.408 140.603 231.363 142.364C224.319 144.125 227.854 156.032 227.854 156.032C227.854 156.032 214.764 153.798 216.118 163.773C216.262 164.798 216.827 165.666 217.668 166.415C222.176 167.085 227 167.44 232.033 167.44C243.376 167.44 253.706 165.6 261.539 162.59L243.389 158.201Z" fill="#FCECD0"/>
<path d="M207.01 48.4585C215.303 25.8269 233.965 9.51679 236.305 9.7665C238.618 10.0162 227.512 62.0218 227.512 62.0218L207.01 48.4585Z" fill="#E06332"/>
<path d="M141.875 133.125C137.419 133.125 133.266 132.1 129.81 130.352C131.006 136.936 129.573 145.269 142.401 145.453C157.436 145.663 154.965 135.753 155.241 129.629C151.561 131.811 146.922 133.125 141.875 133.125Z" fill="#F4BF98"/>
<path d="M209.428 130.036C205.906 130.036 202.62 129.129 199.808 127.591C201.319 134.005 202.397 142.745 213.607 142.14C225.042 141.523 222.899 131.403 222.913 124.766C219.548 127.999 214.764 130.036 209.428 130.036Z" fill="#F4BF98"/>
<path d="M107.336 16.4964C107.559 19.5718 120.071 48.4069 123.225 55.2016L148.748 46.58C129.021 16.4307 107.191 14.4988 107.336 16.4964Z" fill="#E06332"/>
<path d="M126.393 34.1067C130.02 39.9026 132.662 45.83 134.305 51.455L148.735 46.5791C133.293 22.9617 116.562 16.6532 110.096 15.9961C115.892 20.2806 121.622 26.4839 126.393 34.1067Z" fill="#CC512B"/>
<path d="M236.305 9.76622C236.2 9.75308 236.042 9.7925 235.871 9.84507C235.372 13.0125 234.741 16.2324 233.952 19.4787C230.456 33.9487 224.687 46.5526 217.984 55.713L227.513 62.0215C227.513 62.0215 238.618 10.0028 236.305 9.76622Z" fill="#CC512B"/>
<path d="M137.038 86.69C152.875 97.467 167.398 89.1083 167.398 89.1083L168.055 81.8535C161.483 85.9672 148.748 86.1512 137.038 86.69Z" fill="#FFE3C5"/>
<path d="M224.858 83.3912C210.782 94.1682 197.889 85.8094 197.889 85.8094L197.297 78.5547C203.146 82.6683 214.462 82.8524 224.858 83.3912Z" fill="#FFE3C5"/>
<path d="M91.9325 79.1855C90.8942 79.961 90.2371 80.6181 90.2371 81.0387C90.2371 83.0889 99.3318 83.3912 99.3318 83.3912C99.3318 83.3912 96.5587 85.954 93.1942 89.1871C93.6016 89.5814 92.9313 91.0534 93.3519 91.4345C103.603 85.9803 109.964 79.8821 109.964 79.8821L91.9325 79.1855Z" fill="#FFE3C5"/>
<path d="M105.864 101.725C112.908 96.1529 116.273 91.3164 116.273 91.3164L102.631 99.0969L105.864 101.725Z" fill="#FFE3C5"/>
<path d="M105.325 71.0517C111.449 69.1723 119.953 66.8066 119.953 66.8066L102.276 68.7123C102.381 69.974 103.078 70.9203 105.325 71.0517Z" fill="#FFE3C5"/>
<path d="M125.814 75.9143C135.79 75.0337 140.337 70.3418 140.337 70.3418C135.435 71.3144 130.598 73.2463 125.814 75.9143Z" fill="#FFE3C5"/>
<path d="M118.77 105.84C128.745 104.96 133.292 100.268 133.292 100.268C128.39 101.24 123.554 103.172 118.77 105.84Z" fill="#FFE3C5"/>
<path d="M222.873 103.211C228.301 111.622 234.583 113.449 234.583 113.449C231.416 109.572 227.46 106.194 222.873 103.211Z" fill="#FFE3C5"/>
<path d="M221.059 70.6172C225.423 75.1251 229.51 75.4931 229.51 75.4931C227.092 73.4954 224.253 71.892 221.059 70.6172Z" fill="#FFE3C5"/>
<path d="M238.579 89.7129C245.111 95.8374 251.458 95.7059 251.458 95.7059C247.818 93.0774 243.468 91.1192 238.579 89.7129Z" fill="#FFE3C5"/>
</svg>
