<svg width="380" height="99" viewBox="0 0 380 99" fill="none" xmlns="http://www.w3.org/2000/svg">
<path d="M129.681 66.6147L129.614 61.8193C127.579 65.0995 124.565 66.6067 120.626 66.6067C112.491 66.6067 106.652 60.1772 106.652 49.2894C106.652 39.5161 111.571 32.6264 119.904 32.6264C123.906 32.6264 127.056 34.2646 129.483 37.6796V23.1982H137.88V66.6147H129.681ZM129.812 50.4039C129.812 43.3834 127.385 39.9088 122.661 39.9088C117.675 39.9088 115.315 43.2525 115.315 49.8804C115.315 55.6515 118.333 59.6536 122.597 59.6536C126.663 59.6536 129.812 55.8498 129.812 50.4039Z" fill="white"/>
<path d="M149.43 51.8477C149.692 56.7026 152.449 59.852 156.645 59.852C159.402 59.852 161.829 58.4756 162.416 56.2425H171.206C169.239 62.8665 163.924 66.6068 157.038 66.6068C146.281 66.6068 140.898 60.7008 140.898 49.0276C140.898 39.056 146.606 32.6265 156.51 32.6265C166.414 32.6265 171.662 39.056 171.662 51.8477H149.43ZM162.876 46.4693C162.745 41.6818 159.596 39.3852 156.252 39.3852C152.841 39.3852 150.021 42.011 149.692 46.4693H162.876Z" fill="white"/>
<path d="M195.608 66.6148V61.2284C193.378 64.9013 190.031 66.6069 185.572 66.6069C179.143 66.6069 174.617 61.8194 174.617 54.7315V32.6187H183.145V53.4186C183.145 57.4841 184.981 59.4555 188.591 59.4555C192.922 59.4555 195.215 56.3735 195.215 52.1096V32.6226H203.679V66.6148H195.608Z" fill="white"/>
<path d="M221.352 76.0384V33.4788H229.55L229.618 37.4134C231.652 34.1332 234.667 32.626 238.605 32.626C246.741 32.626 252.579 39.0555 252.579 49.9434C252.579 59.7166 247.661 66.6063 239.327 66.6063C235.325 66.6063 232.176 64.9682 229.748 61.557V76.0424H221.352V76.0384ZM243.917 49.3524C243.917 43.5812 240.898 39.5791 236.634 39.5791C232.569 39.5791 229.419 43.3829 229.419 48.8288C229.419 55.8494 231.847 59.324 236.571 59.324C241.557 59.324 243.917 55.9803 243.917 49.3524Z" fill="white"/>
<path d="M263.465 51.8472C263.727 56.7021 266.484 59.8515 270.68 59.8515C273.437 59.8515 275.86 58.4751 276.451 56.242H285.241C283.274 62.866 277.959 66.6063 271.073 66.6063C260.316 66.6063 254.934 60.7003 254.934 49.0271C254.934 39.0555 260.641 32.626 270.545 32.626C280.45 32.626 285.697 39.0555 285.697 51.8472H263.465ZM276.916 46.4688C276.785 41.6813 273.635 39.3848 270.292 39.3848C266.88 39.3848 264.06 42.0105 263.731 46.4688H276.916Z" fill="white"/>
<path d="M306.961 44.5015H314.898V53.6837C314.898 60.506 310.963 66.6063 301.845 66.6063C292.397 66.6063 288.66 60.5694 288.66 53.6163V23.1938H297.057V32.6181H314.902V38.655H297.057V52.7635C297.057 56.8291 298.501 59.1931 301.979 59.1931C305.39 59.1931 306.965 56.8965 306.965 52.8944V44.5015H306.961Z" fill="white"/>
<path d="M347.434 54.0764C346.514 61.5531 340.414 66.6063 332.608 66.6063C323.818 66.6063 317.781 60.7677 317.781 49.2215C317.781 37.6752 323.818 32.626 332.87 32.626C341.266 32.626 346.974 37.4134 347.498 45.025H338.902C338.442 41.6813 336.015 39.71 332.802 39.71C329.193 39.71 326.242 42.0066 326.242 49.0271C326.242 56.0477 329.193 59.4588 332.54 59.4588C335.884 59.4588 338.51 57.5549 338.839 54.0803H347.434V54.0764Z" fill="white"/>
<path d="M370.591 66.6102V45.7469C370.591 40.892 368.953 39.3847 365.081 39.3847C360.817 39.3847 358.457 42.9267 358.457 47.2581V66.6142H349.93V23.1978H358.457V37.6792C359.703 34.7916 363.642 32.6259 367.969 32.6259C374.593 32.6259 379.186 36.4972 379.186 42.9267V66.6142H370.591V66.6102Z" fill="white"/>
<path d="M84.5561 98.4765H13.1566C5.89015 98.4765 0 92.5864 0 85.3199V13.9164C0 6.6499 5.89015 0.759766 13.1566 0.759766H84.5561C91.8226 0.759766 97.7128 6.6499 97.7128 13.9164V85.3159C97.7128 92.5864 91.8226 98.4765 84.5561 98.4765Z" fill="#D80077"/>
<path d="M88.7016 44.7317C88.3089 40.7653 86.8968 37.1043 84.8264 33.6971C69.7262 8.82766 26.7382 9.24413 12.1536 34.3952C10.1387 37.8658 9.0043 41.5546 8.93687 45.5924C8.8734 49.5747 9.70633 53.0969 13.7679 54.8064C17.8177 56.5159 21.5699 55.3141 24.8343 52.8311C28.2295 50.249 28.8998 46.7109 27.1625 42.8437C25.7862 39.7776 25.7545 37.0606 29.2211 35.601C32.4696 34.2326 34.8415 36.0492 36.5788 38.5996C39.2998 42.6057 40.2557 47.1393 38.1852 51.55C36.2139 55.7425 32.0968 56.8253 27.6861 56.7341C26.4447 56.7103 25.1992 56.6508 23.9617 56.7301C18.1945 57.0871 16.6754 59.3004 19.3011 64.2465C22.9264 71.0767 27.6147 77.772 34.2149 81.0244C34.2149 81.0244 35.8609 81.7622 36.5828 82.0081C39.3871 83.0513 44.2261 83.8723 48.8588 83.9437C56.1134 84.0588 62.0552 82.2858 66.4936 78.3392C69.6667 76.0268 72.4115 73.0321 74.7279 69.6567C76.9134 66.4756 80.6021 63.2073 78.9878 59.2012C77.2426 54.8699 72.4274 57.0197 68.9369 56.7738C64.4945 56.4604 60.5836 55.3379 58.8463 50.9352C57.0257 46.3222 58.2632 41.8917 61.3055 38.1593C63.1816 35.8548 65.7558 34.0541 68.8893 35.8509C71.876 37.5683 71.3207 40.2655 70.1863 42.9468C68.5164 46.8934 69.3414 50.3243 72.7605 52.8629C76.2946 55.4847 80.3007 56.5992 84.3742 54.3225C88.0193 52.2957 89.0942 48.7021 88.7016 44.7317Z" fill="white"/>
</svg>
